HIERARCHY
ROOT Pelvis
{
	OFFSET 0.000000 0.000000 0.000000
	CHANNELS 6 Xposition Yposition Zposition Xrotation Yrotation Zrotation
	JOINT LeftUpLeg_virtual
	{
		OFFSET 0.000000 0.000000 0.000000
		CHANNELS 3 Xrotation Yrotation Zrotation
		JOINT LeftUpLeg
		{
			OFFSET 18.735201 -5.666702 -4.541200
			CHANNELS 3 Xrotation Yrotation Zrotation
			JOINT LeftLeg
			{
				OFFSET -0.021200 -31.938179 0.493100
				CHANNELS 3 Xrotation Yrotation Zrotation
				JOINT LeftFoot
				{
					OFFSET 0.021200 -31.938179 -4.336299
					CHANNELS 3 Xrotation Yrotation Zrotation
					JOINT LeftToeBase
					{
						OFFSET 0.943001 -26.722000 15.023500
						CHANNELS 3 Xrotation Yrotation Zrotation
						End Site
						{
							OFFSET 0 0 0
						}
					}
				}
			}
		}
	}
	JOINT RightUpLeg_virtual
	{
		OFFSET 0.000000 0.000000 0.000000
		CHANNELS 3 Xrotation Yrotation Zrotation
		JOINT RightUpLeg
		{
			OFFSET -18.735201 -5.666702 -4.541200
			CHANNELS 3 Xrotation Yrotation Zrotation
			JOINT RightLeg
			{
				OFFSET 0.018946 -31.938133 0.493100
				CHANNELS 3 Xrotation Yrotation Zrotation
				JOINT RightFoot
				{
					OFFSET -0.018946 -31.938126 -4.336299
					CHANNELS 3 Xrotation Yrotation Zrotation
					JOINT RightToeBase
					{
						OFFSET -0.943001 -26.722004 15.023500
						CHANNELS 3 Xrotation Yrotation Zrotation
						End Site
						{
							OFFSET 0 0 0
						}
					}
				}
			}
		}
	}
	JOINT Hips_virtual
	{
		OFFSET 0.000000 0.000000 0.000000
		CHANNELS 3 Xrotation Yrotation Zrotation
		JOINT Hips
		{
			OFFSET -0.000000 -0.000000 -0.000000
			CHANNELS 3 Xrotation Yrotation Zrotation
			JOINT Spine
			{
				OFFSET 0.000000 10.199997 -0.299500
				CHANNELS 3 Xrotation Yrotation Zrotation
				JOINT Spine1
				{
					OFFSET 0.000000 11.900002 -1.516600
					CHANNELS 3 Xrotation Yrotation Zrotation
					JOINT Spine2
					{
						OFFSET 0.000000 13.600006 -2.842500
						CHANNELS 3 Xrotation Yrotation Zrotation
						JOINT Neck_virtual
						{
							OFFSET 0.000000 0.000000 0.000000
							CHANNELS 3 Xrotation Yrotation Zrotation
							JOINT Neck
							{
								OFFSET 0.000000 9.624100 -2.890100
								CHANNELS 3 Xrotation Yrotation Zrotation
								JOINT Head
								{
									OFFSET 0.000000 14.068802 -1.351900
									CHANNELS 3 Xrotation Yrotation Zrotation
									End Site
									{
										OFFSET 0 0 0
									}
								}
							}
						}
						JOINT LeftShoulder_virtual
						{
							OFFSET 0.000000 0.000000 0.000000
							CHANNELS 3 Xrotation Yrotation Zrotation
							JOINT LeftShoulder
							{
								OFFSET 15.263000 10.923401 -0.547700
								CHANNELS 3 Xrotation Yrotation Zrotation
								JOINT LeftArm
								{
									OFFSET 25.438599 -2.830597 -13.032500
									CHANNELS 3 Xrotation Yrotation Zrotation
									JOINT LeftForeArm
									{
										OFFSET 29.960503 0.000000 0.000000
										CHANNELS 3 Xrotation Yrotation Zrotation
										JOINT LeftHand
										{
											OFFSET 27.849251 0.000000 0.000000
											CHANNELS 3 Xrotation Yrotation Zrotation
											End Site
											{
												OFFSET 0 0 0
											}
										}
									}
								}
							}
						}
						JOINT RightShoulder_virtual
						{
							OFFSET 0.000000 0.000000 0.000000
							CHANNELS 3 Xrotation Yrotation Zrotation
							JOINT RightShoulder
							{
								OFFSET -15.263000 10.923401 -0.547700
								CHANNELS 3 Xrotation Yrotation Zrotation
								JOINT RightArm
								{
									OFFSET -25.438599 -2.830597 -13.032500
									CHANNELS 3 Xrotation Yrotation Zrotation
									JOINT RightForeArm
									{
										OFFSET -29.960503 0.000000 0.000000
										CHANNELS 3 Xrotation Yrotation Zrotation
										JOINT RightHand
										{
											OFFSET -27.849251 0.000000 0.000000
											CHANNELS 3 Xrotation Yrotation Zrotation
											End Site
											{
												OFFSET 0 0 0
											}
										}
									}
								}
							}
						}
					}
				}
			}
		}
	}
}
MOTION
Frames: 10
Frame Time: 0.03333333
-5.025703 91.326981 -0.434612 0.000000 0.000000 0.000000 -53.753596 -84.407423 -52.251746 -14.512076 13.915100 5.667440 28.751521 -1.019143 6.676410 -8.095500 5.734684 -10.575688 0.000000 0.000000 0.000000 -48.331050 -82.948454 -46.726424 -12.146485 -27.112238 -11.905913 23.772076 6.617989 -8.513792 -5.577623 -0.863959 14.257250 0.000000 0.000000 0.000000 -37.923987 -82.308233 -35.785595 0.555713 0.792269 -1.533626 2.460324 0.981138 2.093447 3.593111 0.241051 1.623722 0.000000 0.000000 0.000000 4.051313 0.031777 1.083006 -2.966596 3.764318 -2.025399 0.000000 0.000000 0.000000 3.907662 0.098305 1.003822 -0.408953 4.572381 -0.355177 14.306198 -81.922136 -51.985338 -0.555970 -18.748726 0.393325 0.000000 0.000000 0.000000 4.487008 0.565861 1.470438 0.565230 2.707575 7.641332 7.485708 28.024847 60.610580 1.218421 33.303306 0.018458 0.000000 0.000000 0.000000 
-5.058535 91.297821 -0.462318 0.000000 0.000000 0.000000 -52.740494 -84.277001 -51.168977 -14.643017 13.930501 5.695729 28.671591 -1.057143 6.652906 -8.240005 5.873921 -10.665210 0.000000 0.000000 0.000000 -47.457927 -82.893751 -45.938165 -12.056512 -27.040316 -11.661849 23.578520 6.717176 -8.488694 -5.686058 -0.666431 14.533422 0.000000 0.000000 0.000000 -37.990444 -82.277777 -35.806030 0.628833 0.722171 -1.461317 2.401604 1.019952 2.146968 3.617439 0.273102 1.646389 0.000000 0.000000 0.000000 4.139933 0.048060 1.100636 -3.005083 3.762624 -2.035331 0.000000 0.000000 0.000000 3.956456 0.151256 1.031446 -0.437332 4.694937 -0.364157 14.363978 -81.832305 -51.971944 -0.502392 -18.708986 0.415013 0.000000 0.000000 0.000000 4.521617 0.600046 1.492287 0.556272 2.583331 7.597945 7.701835 27.642752 60.532804 1.250261 33.360276 0.011106 0.000000 0.000000 0.000000 
-5.104492 91.320801 -0.425079 0.000000 0.000000 0.000000 -50.435824 -84.313904 -48.884262 -14.822919 14.053446 5.827318 28.585061 -1.226724 6.669988 -8.630272 5.872343 -11.020768 0.000000 0.000000 0.000000 -45.417094 -82.938386 -44.027792 -11.758017 -26.653273 -11.227689 23.292285 6.843931 -8.538277 -6.356650 -0.467455 14.916139 0.000000 0.000000 0.000000 -37.757607 -82.448641 -35.618767 0.640760 0.615414 -1.429447 2.287973 1.002478 2.208950 3.697139 0.281732 1.692216 0.000000 0.000000 0.000000 4.296046 0.067577 1.145946 -2.995787 3.736554 -2.047050 0.000000 0.000000 0.000000 4.010155 0.187934 1.074015 -0.479236 4.817434 -0.415773 16.959266 -81.840338 -49.360285 -0.503523 -19.161361 0.352436 0.000000 0.000000 0.000000 4.565581 0.623393 1.520383 0.557380 2.337113 7.279470 7.650553 27.422335 60.881841 1.264780 33.627596 -0.058566 0.000000 0.000000 0.000000 
-5.132409 91.359207 -0.338436 0.000000 0.000000 0.000000 -47.720244 -84.513592 -46.245302 -14.980874 14.310261 6.082755 28.523555 -1.470305 6.681050 -9.086519 5.700510 -11.676998 0.000000 0.000000 0.000000 -42.877776 -83.083466 -41.595497 -11.503661 -26.011071 -10.799478 23.143270 6.953138 -8.643265 -7.509823 -0.371085 15.255547 0.000000 0.000000 0.000000 -36.972637 -82.776128 -34.955416 0.611328 0.542787 -1.456851 2.132878 0.927876 2.239484 3.812828 0.288631 1.749151 0.000000 0.000000 0.000000 4.452206 0.101408 1.199264 -2.948357 3.696765 -2.054204 0.000000 0.000000 0.000000 4.045039 0.225810 1.112830 -0.522608 4.874993 -0.517948 22.441572 -81.931575 -43.863038 -0.560622 -19.913215 0.210236 0.000000 0.000000 0.000000 4.585425 0.651160 1.542535 0.582958 2.093820 6.798939 7.472500 27.464768 61.384044 1.291230 34.275108 -0.168820 0.000000 0.000000 0.000000 
-5.091166 91.384315 -0.221024 0.000000 0.000000 0.000000 -45.760895 -84.829221 -44.344863 -15.157015 14.838967 6.472582 28.503723 -1.612293 6.628720 -9.371754 5.486807 -12.405399 0.000000 0.000000 0.000000 -40.605782 -83.336736 -39.380712 -11.577166 -25.318386 -10.552092 23.391293 6.896953 -8.723218 -8.950972 -0.492048 15.322040 0.000000 0.000000 0.000000 -35.816310 -83.209872 -33.944131 0.503168 0.514956 -1.478001 1.986319 0.830174 2.194117 3.940259 0.345901 1.795657 0.000000 0.000000 0.000000 4.569127 0.180747 1.240149 -2.883194 3.646591 -2.051346 0.000000 0.000000 0.000000 4.060723 0.290644 1.131060 -0.548583 4.892753 -0.633843 30.043997 -81.956997 -36.245703 -0.630613 -20.791886 0.009993 0.000000 0.000000 0.000000 4.568730 0.718741 1.544077 0.654500 1.974509 6.314512 7.378073 27.707960 61.742499 1.327436 35.210175 -0.257486 0.000000 0.000000 0.000000 
-4.938705 91.414696 -0.217846 0.000000 0.000000 0.000000 -45.108943 -85.222128 -43.730699 -15.322237 15.506681 6.852468 28.532448 -1.512388 6.546225 -9.649030 5.398054 -12.867007 0.000000 0.000000 0.000000 -39.472568 -83.753958 -38.252550 -12.077402 -24.757952 -10.523552 24.046178 6.631537 -8.751005 -10.311257 -0.824808 15.025714 0.000000 0.000000 0.000000 -34.527354 -83.740694 -32.799333 0.436172 0.514574 -1.521751 1.863140 0.753749 2.016800 4.050817 0.496319 1.808613 0.000000 0.000000 0.000000 4.591238 0.327548 1.241359 -2.827331 3.590982 -2.040269 0.000000 0.000000 0.000000 4.061645 0.422482 1.124018 -0.551408 4.882641 -0.726339 37.491069 -81.747980 -28.725358 -0.707895 -21.565219 -0.216803 0.000000 0.000000 0.000000 4.518110 0.855493 1.518055 0.769531 2.054628 5.961452 7.464121 27.890987 61.803527 1.364729 36.091491 -0.296692 0.000000 0.000000 0.000000 
-4.670725 91.448296 -0.318241 0.000000 0.000000 0.000000 -46.205690 -85.759104 -44.864483 -15.258269 15.876080 6.976943 28.422599 -1.230911 6.647346 -10.458701 5.473918 -12.925725 0.000000 0.000000 0.000000 -40.055228 -84.393319 -38.842155 -12.923909 -24.254883 -10.640694 24.854162 6.403815 -8.758458 -11.133605 -1.079808 14.569606 0.000000 0.000000 0.000000 -34.209358 -84.432640 -32.599492 0.407498 0.581003 -1.492114 1.773310 0.719354 1.694170 4.140800 0.733013 1.754436 0.000000 0.000000 0.000000 4.547708 0.537395 1.177733 -2.793240 3.526275 -2.019701 0.000000 0.000000 0.000000 4.073267 0.622229 1.067735 -0.518434 4.864412 -0.747130 41.230034 -81.194980 -24.688357 -0.770931 -22.349016 -0.405020 0.000000 0.000000 0.000000 4.460800 1.063166 1.439763 0.908277 2.300129 5.784897 7.624752 27.720031 61.560474 1.381895 36.849902 -0.275513 0.000000 0.000000 0.000000 
-4.306576 91.501701 -0.502960 0.000000 0.000000 0.000000 -50.472205 -86.490945 -49.206718 -14.881278 15.695134 6.810050 27.933128 -0.872494 6.996489 -11.858169 5.674227 -12.752256 0.000000 0.000000 0.000000 -43.563384 -85.208618 -42.338823 -14.000545 -23.727939 -10.794009 25.760687 6.419343 -8.774749 -11.151798 -1.020937 14.204136 0.000000 0.000000 0.000000 -36.471130 -85.302806 -34.937408 0.370728 0.557766 -1.420821 1.760209 0.743198 1.259377 4.250573 1.015934 1.614163 0.000000 0.000000 0.000000 4.496366 0.787071 1.046267 -2.792795 3.451360 -1.990121 0.000000 0.000000 0.000000 4.130100 0.853287 0.941922 -0.455701 4.897554 -0.632525 39.333827 -80.213468 -26.001707 -0.779638 -23.500343 -0.508961 0.000000 0.000000 0.000000 4.451150 1.301979 1.299487 1.041714 2.633996 5.746914 7.732826 27.055745 61.121826 1.368906 37.906539 -0.197868 0.000000 0.000000 0.000000 
-3.868541 91.551758 -0.847607 0.000000 0.000000 0.000000 -60.733783 -87.284948 -59.576366 -14.528120 15.055591 6.569293 27.144097 -0.356125 7.450066 -13.292504 5.918627 -12.579176 0.000000 0.000000 0.000000 -51.832222 -86.099466 -50.548393 -15.390947 -23.235072 -11.005257 26.945673 6.713535 -8.812641 -10.471585 -0.619839 13.881414 0.000000 0.000000 0.000000 -43.392475 -86.259484 -41.894386 0.304250 0.403059 -1.343493 1.843073 0.795707 0.792697 4.445767 1.256478 1.391339 0.000000 0.000000 0.000000 4.534378 0.991379 0.842840 -2.826616 3.376287 -1.956954 0.000000 0.000000 0.000000 4.269600 1.044392 0.739485 -0.387135 4.938371 -0.351692 33.106268 -78.519336 -31.477258 -0.774686 -25.428542 -0.518448 0.000000 0.000000 0.000000 4.581624 1.498183 1.097768 1.143424 2.929997 5.757153 7.924311 26.020902 60.483702 1.349032 40.044538 -0.117990 0.000000 0.000000 0.000000 
-3.340371 91.477615 -1.324390 0.000000 0.000000 0.000000 -82.731349 -87.853513 -81.623957 -14.947405 14.162014 6.500602 26.790039 0.412424 7.840303 -13.671169 6.172090 -12.453718 0.000000 0.000000 0.000000 -66.782420 -86.830037 -65.404375 -17.285959 -22.860677 -11.305740 28.846256 7.151882 -8.853384 -9.633587 -0.027582 13.272217 0.000000 0.000000 0.000000 -58.618562 -87.122608 -57.105415 0.217710 0.141160 -1.265230 2.089314 0.817462 0.399435 4.826955 1.353487 1.108638 0.000000 0.000000 0.000000 4.797496 1.062306 0.589892 -2.882562 3.309928 -1.926450 0.000000 0.000000 0.000000 4.591296 1.102880 0.475232 -0.324998 4.973877 0.171678 26.569694 -75.898373 -37.189673 -0.745997 -28.574404 -0.467276 0.000000 0.000000 0.000000 4.943651 1.556904 0.846566 1.213764 3.047417 5.705428 8.551475 24.903363 59.538260 1.331704 44.080651 -0.064982 0.000000 0.000000 0.000000 
